<svg xmlns="http://www.w3.org/2000/svg" width="15.838" height="15.838" viewBox="0 0 15.838 15.838">
    <g id="prefix__add" transform="translate(0 -.001)">
        <g id="prefix__Group_70" data-name="Group 70" transform="translate(0 .001)">
            <path id="prefix__Path_305" d="M14.979 6.815H9.024V.86A1.068 1.068 0 0 0 7.919 0a1.068 1.068 0 0 0-1.1.859v5.956H.859A1.068 1.068 0 0 0 0 7.92a1.068 1.068 0 0 0 .859 1.1h5.955v5.96a1.068 1.068 0 0 0 1.1.859 1.068 1.068 0 0 0 1.1-.859V9.025h5.955a1.068 1.068 0 0 0 .859-1.1 1.068 1.068 0 0 0-.849-1.11z" data-name="Path 305" transform="translate(0 -.001)" style="fill:#4784f7"/>
        </g>
    </g>
</svg>
