<svg xmlns="http://www.w3.org/2000/svg" id="prefix__dashboard" width="32.342" height="32.342" viewBox="0 0 32.342 32.342">
    <defs>
        <style>
            .prefix__cls-1{fill:#fff}
        </style>
    </defs>
    <path id="prefix__Path_64" d="M12.465 0H2.358A2.361 2.361 0 0 0 0 2.358v6.064a2.361 2.361 0 0 0 2.358 2.358h10.107a2.361 2.361 0 0 0 2.358-2.358V2.358A2.361 2.361 0 0 0 12.465 0zm0 0" class="prefix__cls-1" data-name="Path 64"/>
    <path id="prefix__Path_65" d="M12.465 213.332H2.358A2.361 2.361 0 0 0 0 215.69v14.15a2.361 2.361 0 0 0 2.358 2.36h10.107a2.361 2.361 0 0 0 2.358-2.358V215.69a2.361 2.361 0 0 0-2.358-2.358zm0 0" class="prefix__cls-1" data-name="Path 65" transform="translate(0 -199.856)"/>
    <path id="prefix__Path_66" d="M289.8 341.332h-10.109a2.361 2.361 0 0 0-2.358 2.358v6.064a2.361 2.361 0 0 0 2.358 2.358H289.8a2.361 2.361 0 0 0 2.358-2.358v-6.064a2.361 2.361 0 0 0-2.358-2.358zm0 0" class="prefix__cls-1" data-name="Path 66" transform="translate(-259.814 -319.771)"/>
    <path id="prefix__Path_67" d="M289.8 0h-10.109a2.361 2.361 0 0 0-2.358 2.358v14.15a2.361 2.361 0 0 0 2.358 2.358H289.8a2.361 2.361 0 0 0 2.358-2.358V2.358A2.361 2.361 0 0 0 289.8 0zm0 0" class="prefix__cls-1" data-name="Path 67" transform="translate(-259.814)"/>
</svg>
