<svg xmlns="http://www.w3.org/2000/svg" width="36.583" height="38.772" viewBox="0 0 36.583 38.772">
    <defs>
        <style>
            .prefix__cls-1{fill:#fff}
        </style>
    </defs>
    <g id="prefix__details" transform="translate(-23.994 -10.305)">
        <path id="prefix__Rectangle_718" d="M0 0H2.918V5.349H0z" class="prefix__cls-1" data-name="Rectangle 718" transform="translate(33.557 30.217)"/>
        <path id="prefix__Rectangle_719" d="M0 0H2.918V10.049H0z" class="prefix__cls-1" data-name="Rectangle 719" transform="translate(25.372 25.517)"/>
        <path id="prefix__Path_568" d="M26.825 21.683a2.826 2.826 0 0 0 2.235-1.1l3.225 2.245a2.83 2.83 0 1 0 5.577.682 2.861 2.861 0 0 0-.022-.344l3.4-2.871a2.83 2.83 0 0 0 4.66-2.97l3.072-2.816a2.829 2.829 0 1 0-.357-1.373v.156l-3.328 3.051a2.828 2.828 0 0 0-4.678 3l-3.176 2.678a2.827 2.827 0 0 0-4.654-.229l-3.217-2.24a2.831 2.831 0 1 0-2.742 2.128z" class="prefix__cls-1" data-name="Path 568"/>
        <path id="prefix__Path_569" d="M347.836 127H345v10.337a9.726 9.726 0 0 1 1.5-.115 9.422 9.422 0 0 1 1.338.092z" class="prefix__cls-1" data-name="Path 569" transform="translate(-294.991 -107.237)"/>
        <path id="prefix__Path_571" d="M246.837 197.8V190H244v10.7h.666a10.65 10.65 0 0 1 2.171-2.9z" class="prefix__cls-1" data-name="Path 571" transform="translate(-202.176 -165.132)"/>
        <g id="prefix__search_2" data-name="search 2" transform="translate(42.529 31.029)">
            <path id="prefix__Path_594" d="M185.015 100.619a3.3 3.3 0 1 0-6.59 0v1.535a.129.129 0 0 0 .024-.072l.06-1.326a.357.357 0 0 1 .375-.34c.032 0 3.242.146 5.03-1.225a.357.357 0 1 1 .434.566 5.634 5.634 0 0 1-1.549.815 4.462 4.462 0 0 0 2.216.912z" class="prefix__cls-1" data-name="Path 594" transform="translate(-172.695 -95.727)"/>
            <path id="prefix__Path_595" d="M149.994 329.51v-.8a1.435 1.435 0 0 0-.034-.329l-.015-.059a1.547 1.547 0 0 0-1.029-1.053l-2.545-.825a3.806 3.806 0 0 1-3.317 0l-2.544.825a1.547 1.547 0 0 0-1.029 1.053l-.015.059a1.435 1.435 0 0 0-.034.329v.8a9.031 9.031 0 0 0 10.563 0z" class="prefix__cls-1" data-name="Path 595" transform="translate(-135.689 -313.167)"/>
            <path id="prefix__Path_596" d="M230.594 165.923a7.782 7.782 0 0 0 3.169 1.069 4.871 4.871 0 0 1-2.252-1.25q-.436.107-.917.181z" class="prefix__cls-1" data-name="Path 596" transform="translate(-222.205 -160.658)"/>
            <path id="prefix__Path_597" d="M172.772 175.148a.345.345 0 0 1 .008-.034l.181-.624a.357.357 0 0 1 .289-.284.562.562 0 0 0 .447-.687.328.328 0 0 0-.25-.246 8.612 8.612 0 0 1-5.349-1.735c-.338.023-.623.029-.83.029l-.045.979a.844.844 0 0 1-1.167.744.323.323 0 0 0-.2.228.562.562 0 0 0 .447.687.357.357 0 0 1 .289.284l.181.624a.341.341 0 0 1 .008.034 3.046 3.046 0 0 0 5.988 0z" class="prefix__cls-1" data-name="Path 597" transform="translate(-160.754 -166.16)"/>
            <path id="prefix__Path_598" d="M66 75.014a8.965 8.965 0 0 0 2.642 6.386q.189.189.386.364v-.23a2.138 2.138 0 0 1 .053-.491l.022-.086a2.258 2.258 0 0 1 1.5-1.542l2.442-.792v-1.014a3.758 3.758 0 0 1-1.711-2.482l-.131-.45a1.276 1.276 0 0 1-.79-1.5 1.037 1.037 0 0 1 .6-.715v-1.581a4.009 4.009 0 1 1 8.017 0v1.584a1.037 1.037 0 0 1 .6.714 1.276 1.276 0 0 1-.79 1.5l-.131.45A3.758 3.758 0 0 1 77 77.609v1.009l2.442.792a2.258 2.258 0 0 1 1.5 1.543q.012.042.022.085a2.138 2.138 0 0 1 .053.491v.23q.165-.147.325-.3a.4.4 0 0 1 .122-.122A9.024 9.024 0 1 0 66 75.014z" class="prefix__cls-1" data-name="Path 598" transform="translate(-65.999 -65.989)"/>
            <path id="prefix__Path_599" d="M218.192 301.451a3.092 3.092 0 0 0 2.535 0v-.705a3.754 3.754 0 0 1-2.535 0z" class="prefix__cls-1" data-name="Path 599" transform="translate(-210.435 -288.781)"/>
        </g>
    </g>
</svg>
