<?xml version="1.0" ?><!DOCTYPE svg  PUBLIC '-//W3C//DTD SVG 1.1//EN'  'http://www.w3.org/Graphics/SVG/1.1/DTD/svg11.dtd'><svg enable-background="new 0 0 141.732 141.732" height="141.732px" id="Livello_1" version="1.1" viewBox="0 0 141.732 141.732" width="141.732px" xml:space="preserve" xmlns="http://www.w3.org/2000/svg" xmlns:xlink="http://www.w3.org/1999/xlink"><g id="Livello_47"><path d="M76.218,75.919c0-0.045-0.012-0.086-0.014-0.131h0.014V5.709l0,0C76.212,2.555,73.653,0,70.5,0   c-3.155,0-5.714,2.558-5.72,5.709l0,0v70.079h0.016c-0.002,0.045-0.016,0.086-0.016,0.131c0,3.158,2.562,5.722,5.721,5.722   C73.657,81.638,76.218,79.077,76.218,75.919 M134.718,75.919c0-31.472-22.641-57.648-52.52-63.149V22.87   c24.375,5.354,42.619,27.069,42.619,53.052c0,29.999-24.318,54.319-54.317,54.319c-30,0-54.319-24.323-54.319-54.322   c0-25.979,18.244-47.697,42.619-53.052v-10.1C28.92,18.268,6.28,44.447,6.28,75.919c0,35.47,28.752,64.222,64.221,64.222   C105.966,140.139,134.718,111.386,134.718,75.919"/></g><g id="Livello_1_1_"/></svg>