<svg xmlns="http://www.w3.org/2000/svg" width="37.886" height="42.898" viewBox="0 0 37.886 42.898">
    <defs>
        <style>
            .prefix__cls-2{fill:#fff}
        </style>
    </defs>
    <g id="prefix__project_ns" transform="translate(-403.748 -580.814)" style="opacity:.4">
        <g id="prefix__noun_Project_3120668" transform="translate(395.648 578.314)">
            <g id="prefix__Group_22" data-name="Group 22" transform="translate(8.1 2.5)">
                <path id="prefix__Path_80" d="M14.2 48.934V39a6.737 6.737 0 0 1-.948.09A6.146 6.146 0 0 1 12.3 39v9.934a6.736 6.736 0 0 1 .948-.09 6.736 6.736 0 0 1 .952.09z" class="prefix__cls-2" data-name="Path 80" transform="translate(-10.403 -22.518)"/>
                <path id="prefix__Path_81" d="M31.173 13.471a4.124 4.124 0 0 1-.948-1.671L21.6 16.812a4.123 4.123 0 0 1 .948 1.671z" class="prefix__cls-2" data-name="Path 81" transform="translate(-15.504 -7.601)"/>
                <path id="prefix__Path_82" d="M83.5 39v9.934a6.736 6.736 0 0 1 .948-.09 6.146 6.146 0 0 1 .948.09V39a5.024 5.024 0 0 1-1.9 0z" class="prefix__cls-2" data-name="Path 82" transform="translate(-49.453 -22.518)"/>
                <path id="prefix__Path_83" d="M57.2 78.412a4.833 4.833 0 0 1 .993 1.671l8.625-5.012a4.45 4.45 0 0 1-.993-1.671z" class="prefix__cls-2" data-name="Path 83" transform="translate(-35.029 -41.385)"/>
                <path id="prefix__Path_84" d="M57.2 13.471l8.625 4.967a4.225 4.225 0 0 1 .993-1.671l-8.67-4.967a4.723 4.723 0 0 1-.948 1.671z" class="prefix__cls-2" data-name="Path 84" transform="translate(-35.029 -7.601)"/>
                <path id="prefix__Path_85" d="M21.6 75.171l8.625 5.012a4.723 4.723 0 0 1 .948-1.671L22.548 73.5a4.723 4.723 0 0 1-.948 1.671z" class="prefix__cls-2" data-name="Path 85" transform="translate(-15.504 -41.439)"/>
                <path id="prefix__Path_86" d="M46.545 8.235a2.91 2.91 0 0 0 2.89-2.89 2.867 2.867 0 0 0-5.735.045 2.833 2.833 0 0 0 2.845 2.845z" class="prefix__cls-2" data-name="Path 86" transform="translate(-27.625 -2.5)"/>
                <path id="prefix__Path_87" d="M82.145 28.835a2.881 2.881 0 0 0 2.89-2.89 2.867 2.867 0 1 0-2.89 2.89z" class="prefix__cls-2" data-name="Path 87" transform="translate(-47.149 -13.798)"/>
                <path id="prefix__Path_88" d="M82.145 64.2a2.833 2.833 0 0 0-2.845 2.845 2.867 2.867 0 1 0 5.735 0 2.9 2.9 0 0 0-2.89-2.845z" class="prefix__cls-2" data-name="Path 88" transform="translate(-47.149 -36.339)"/>
                <path id="prefix__Path_89" d="M10.945 23.1A2.833 2.833 0 0 0 8.1 25.945a2.867 2.867 0 1 0 5.735 0 2.9 2.9 0 0 0-2.89-2.845z" class="prefix__cls-2" data-name="Path 89" transform="translate(-8.1 -13.798)"/>
                <path id="prefix__Path_90" d="M10.945 64.2A2.833 2.833 0 0 0 8.1 67.045a2.867 2.867 0 1 0 5.735 0 2.932 2.932 0 0 0-2.89-2.845z" class="prefix__cls-2" data-name="Path 90" transform="translate(-8.1 -36.339)"/>
                <path id="prefix__Path_91" d="M46.545 84.8a2.867 2.867 0 1 0 2.89 2.89 2.881 2.881 0 0 0-2.89-2.89z" class="prefix__cls-2" data-name="Path 91" transform="translate(-27.625 -47.637)"/>
                <path id="prefix__Path_92" d="M34.516 52.035a2.389 2.389 0 0 1-1.355-.406L31.4 50.5v6.231a.964.964 0 0 0 .993.948h14.9a.926.926 0 0 0 .948-.948V50.5l-1.806 1.129a2.389 2.389 0 0 1-1.355.406h-2.256v.181a2.072 2.072 0 0 1-2.077 2.077h-1.9a2.072 2.072 0 0 1-2.077-2.077v-.181z" class="prefix__cls-2" data-name="Path 92" transform="translate(-20.879 -28.825)"/>
                <path id="prefix__Path_93" d="M41.273 29.4h-5.69a1 1 0 0 0-.993.993v2.484h-4.742a.926.926 0 0 0-.948.948v1.987a1.009 1.009 0 0 0 .452.813l3.3 2.077a.91.91 0 0 0 .5.135H35.4V38.7a2.072 2.072 0 0 1 2.077-2.077h1.9a2.072 2.072 0 0 1 2.076 2.077v.135h2.258a.91.91 0 0 0 .5-.135l3.3-2.077a1.009 1.009 0 0 0 .452-.813v-1.985a.926.926 0 0 0-.948-.948h-4.749v-2.484a1 1 0 0 0-.993-.993zm-.993 3.477h-3.7v-1.49h3.7z" class="prefix__cls-2" data-name="Path 93" transform="translate(-19.508 -17.253)"/>
                <path id="prefix__Path_94" d="M49.248 51.9a.453.453 0 0 0 .452-.452v-1.9a.453.453 0 0 0-.452-.452h-1.9a.452.452 0 0 0-.452.452v1.9a.453.453 0 0 0 .452.452z" class="prefix__cls-2" data-name="Path 94" transform="translate(-29.38 -28.057)"/>
            </g>
        </g>
    </g>
</svg>
