<svg xmlns="http://www.w3.org/2000/svg" width="29.081" height="36.544" viewBox="0 0 29.081 36.544">
    <g id="prefix__report" transform="translate(-1.858 -79.935)">
        <g id="prefix__report-2" data-name="report" transform="translate(-10.342 77.435)">
            <path id="prefix__Path_79" d="M38.9 2.5H14.585A2.4 2.4 0 0 0 12.2 4.885v31.774a2.4 2.4 0 0 0 2.385 2.385H38.9a2.4 2.4 0 0 0 2.385-2.385V4.885A2.4 2.4 0 0 0 38.9 2.5zm-9.313 6.155a.385.385 0 0 1 .385-.385h1.77a.385.385 0 0 1 .385.385v6.77a.385.385 0 0 1-.385.385h-1.77a.385.385 0 0 1-.385-.385zM25.2 10.617a.385.385 0 0 1 .385-.385h1.77a.385.385 0 0 1 .385.385v4.808a.385.385 0 0 1-.385.385h-1.77a.385.385 0 0 1-.385-.385zm-4.385 2a.385.385 0 0 1 .385-.385h1.77a.385.385 0 0 1 .385.385v2.808a.385.385 0 0 1-.385.385H21.2a.385.385 0 0 1-.385-.385zM33.973 33H19.509a.769.769 0 0 1 0-1.539h14.5a.772.772 0 0 1 .769.769.806.806 0 0 1-.805.77zm0-5.886H19.509a.769.769 0 0 1 0-1.539h14.5a.772.772 0 0 1 .769.769.806.806 0 0 1-.805.775zm0-5.847H19.509a.769.769 0 0 1 0-1.539h14.5a.772.772 0 0 1 .769.769.806.806 0 0 1-.805.775z" data-name="Path 79" style="fill:#fff"/>
        </g>
    </g>
</svg>
