<svg xmlns="http://www.w3.org/2000/svg" width="39.128" height="35.154" viewBox="0 0 39.128 35.154">
    <path id="prefix__task_group_subgroup" d="M36.311 24.3h-1.485v-2.719a2.645 2.645 0 0 0-2.645-2.639H20.689V16.03h7.618a3.12 3.12 0 0 0 3.116-3.116v-9.8A3.119 3.119 0 0 0 28.306 0H10.781a3.119 3.119 0 0 0-3.115 3.116v9.8a3.12 3.12 0 0 0 3.116 3.116H18.4v2.912H6.947A2.645 2.645 0 0 0 4.3 21.581V24.3H2.816A2.819 2.819 0 0 0 0 27.113v5.224a2.819 2.819 0 0 0 2.816 2.816h5.263a2.819 2.819 0 0 0 2.816-2.816v-5.224A2.819 2.819 0 0 0 8.079 24.3H6.594v-2.719a.35.35 0 0 1 .353-.346H18.4V24.3h-1.467a2.819 2.819 0 0 0-2.816 2.816v5.224a2.819 2.819 0 0 0 2.816 2.816h5.262a2.819 2.819 0 0 0 2.816-2.816v-5.227a2.819 2.819 0 0 0-2.816-2.813h-1.506v-3.065h11.492a.35.35 0 0 1 .353.346V24.3h-1.485a2.819 2.819 0 0 0-2.816 2.816v5.224a2.819 2.819 0 0 0 2.816 2.816h5.262a2.819 2.819 0 0 0 2.816-2.816v-5.227a2.819 2.819 0 0 0-2.816-2.813zM25.373 4.966H26.6a1.146 1.146 0 0 1 0 2.293h-1.227a1.146 1.146 0 0 1 0-2.293zm-12.748 0h8.911a1.146 1.146 0 1 1 0 2.293h-8.911a1.146 1.146 0 0 1 0-2.293zm0 6.1a1.146 1.146 0 0 1 0-2.293h12.748a1.146 1.146 0 0 1 0 2.293zm0 0" style="fill:#fff;opacity:.4"/>
</svg>
