<svg xmlns="http://www.w3.org/2000/svg" width="38.242" height="29.321" viewBox="0 0 38.242 29.321">
    <g id="prefix__task_ns" transform="translate(-8.847 -40.306)" style="opacity:.4">
        <path id="prefix__flowchart" d="M33.3 25.8h12.266a5.022 5.022 0 0 0 5.016-5.016V5.015A5.022 5.022 0 0 0 45.566 0H17.355a5.021 5.021 0 0 0-5.015 5.015v15.774a5.022 5.022 0 0 0 5.015 5.011h12.258c-20.779 4.693 24.539 4.693 3.687 0zm7.54-17.811h1.978a1.845 1.845 0 0 1 0 3.691h-1.974a1.845 1.845 0 0 1 0-3.691zm-20.521 0h14.348a1.845 1.845 0 1 1 0 3.691H20.323a1.845 1.845 0 1 1 0-3.691zm0 9.817a1.845 1.845 0 1 1 0-3.691h20.525a1.845 1.845 0 0 1 0 3.691zm0 0" transform="translate(-3.493 40.306)" style="fill:#fff"/>
    </g>
</svg>
