<svg xmlns="http://www.w3.org/2000/svg" viewBox="0 0 100 125">
    <path d="M50 14.038c-19.9 0-36 16.1-36 36s16.1 36 36 36 36-16.1 36-36-16.1-36-36-36zm0 4c17.7 0 32 14.3 32 32s-14.3 32-32 32-32-14.3-32-32 14.3-32 32-32zm0 12c-6.5 0-12 5.5-12 12 0 1.1.9 2 2 2s2-.9 2-2v-.1c0-4.2 3.8-8 8-8s8 3.8 8 8c0 3.5-1.8 5.3-4.3 7.5-1.2 1.1-2.6 2.3-3.7 3.8s-2 3.4-2 5.6v1.1c0 1.1.9 2 2 2s2-.9 2-2V58.738c0-1.3.4-2.2 1.2-3.2s1.9-2.1 3.2-3.2c2.5-2.3 5.7-5.4 5.6-10.5 0-6.4-5.5-11.8-12-11.8zm0 35c-1.7 0-3 1.3-3 3s1.3 3 3 3 3-1.3 3-3-1.3-3-3-3z"/>
</svg>
